<svg width="13" height="15" viewBox="0 0 13 15" fill="none" xmlns="http://www.w3.org/2000/svg">
<path d="M6.70531 13.8998C6.53099 13.9025 6.36109 13.8449 6.22431 13.7368C5.39603 13.0243 4.6376 12.2344 3.95931 11.3778C3.3467 10.6183 2.82452 9.79004 2.40331 8.90982C1.95883 8.00628 1.7172 7.01652 1.69531 6.00982C1.69516 5.01882 1.9889 4.05003 2.5394 3.226C3.08989 2.40196 3.87241 1.75969 4.78796 1.38043C5.70352 1.00117 6.71098 0.901957 7.68293 1.09533C8.65488 1.28871 9.54765 1.766 10.2483 2.46682C10.7152 2.93094 11.0853 3.48308 11.3373 4.09124C11.5893 4.69941 11.7181 5.35152 11.7163 6.00982C11.6944 7.01652 11.4528 8.00628 11.0083 8.90982C10.5868 9.79009 10.0643 10.6183 9.45131 11.3778C8.77302 12.2344 8.01458 13.0243 7.18631 13.7368C7.04953 13.8449 6.87963 13.9025 6.70531 13.8998V13.8998ZM6.75931 4.32182C6.38353 4.32182 6.01618 4.43325 5.70373 4.64202C5.39128 4.8508 5.14775 5.14754 5.00394 5.49472C4.86013 5.8419 4.82251 6.22392 4.89582 6.59249C4.96913 6.96105 5.15009 7.2996 5.41581 7.56532C5.68153 7.83104 6.02008 8.012 6.38864 8.08531C6.7572 8.15862 7.13923 8.12099 7.48641 7.97719C7.83359 7.83338 8.13033 7.58985 8.3391 7.2774C8.54788 6.96495 8.65931 6.5976 8.65931 6.22182C8.65905 5.71808 8.45875 5.23506 8.10246 4.87896C7.74617 4.52286 7.26305 4.32282 6.75931 4.32282V4.32182Z" stroke="#828282" stroke-width="1.5" stroke-linecap="round" stroke-linejoin="round"/>
</svg>
